# AST/ASF file generated using VICON BodyLanguage
# -----------------------------------------------
:version 1.10
:name VICON
:units
  mass 1.0
  length 0.45
  angle deg
:documentation
   .ast/.asf automatically generated from VICON data using
   VICON BodyBuilder and BodyLanguage model FoxedUp or BRILLIANT.MOD
:root
   order TX TY TZ RX RY RZ
   axis XYZ
   position 0 0 0  
   orientation 0 0 0 
:bonedata
  begin
     id 1 
     name lhipjoint
     direction 0.547975 -0.797114 0.253638 
     length 2.36201 
     axis 0 0 0  XYZ
  end
  begin
     id 2 
     name lfemur
     direction 0.34202 -0.939693 0  
     length 7.69075  
     axis 0 0 20  XYZ
    dof rx ry rz
    limits (-160.0 20.0)
           (-70.0 70.0)
           (-60.0 70.0)
  end
  begin
     id 3 
     name ltibia
     direction 0.34202 -0.939693 0   
     length 7.91399   
     axis 0 0 20   XYZ
    dof rx
    limits (-10.0 170.0)
  end
  begin
     id 4 
     name lfoot
     direction 0.0705293 -0.193778 0.978507   
     length 2.13618   
     axis -90 7.62852e-016 20   XYZ
    dof rx rz
    limits (-45.0 90.0)
           (-70.0 20.0)
  end
  begin
     id 5 
     name ltoes
     direction 1.53592e-011 -4.21925e-011 1   
     length 1.07518   
     axis -90 7.62852e-016 20   XYZ
    dof rx
    limits (-90.0 20.0)
  end
  begin
     id 6 
     name rhipjoint
     direction -0.57 -0.782963 0.249136   
     length 2.4047  
     axis 0 0 0  XYZ 
  end
  begin
     id 7 
     name rfemur
     direction -0.34202 -0.939693 0   
     length 7.51486   
     axis 0 0 -20   XYZ
    dof rx ry rz
    limits (-160.0 20.0)
           (-70.0 70.0)
           (-70.0 60.0)
  end
  begin
     id 8 
     name rtibia
     direction -0.34202 -0.939693 0   
     length 8.08317   
     axis 0 0 -20   XYZ
    dof rx
    limits (-10.0 170.0)
 end
 begin
     id 9 
     name rfoot
     direction -0.104954 -0.281256 0.953876   
     length 2.30343  
     axis -90 -7.62852e-016 -20   XYZ
    dof rx rz
    limits (-45.0 90.0)
           (-20.0 70.0)
  end
  begin
     id 10 
     name rtoes
     direction -1.53556e-011 -4.21922e-011 1   
     length 1.14803   
     axis -90 -7.62852e-016 -20   XYZ
    dof rx
    limits (-90.0 20.0)
  end
  begin
     id 11 
     name lowerback
     direction -0.0152855 0.99353 -0.11254   
     length 2.05311   
     axis 0 0 0   XYZ
    dof rx ry rz
    limits (-20.0 45.0)
           (-30.0 30.0)
           (-30.0 30.0)
  end
  begin
     id 12 
     name upperback
     direction -0.00157509 0.999443 -0.033332   
     length 2.06353   
     axis 0 0 0   XYZ
    dof rx ry rz
    limits (-20.0 45.0)
           (-30.0 30.0)
           (-30.0 30.0)
  end
  begin
     id 13 
     name thorax
     direction 0.00577788 0.999804 0.0189484   
     length 2.08472   
     axis 0 0 0   XYZ
    dof rx ry rz
    limits (-20.0 45.0)
           (-30.0 30.0)
           (-30.0 30.0)
  end
  begin
     id 14 
     name lowerneck
     direction -1.09301e-005 0.994719 0.10264   
     length 1.76249   
     axis 0 0 0   XYZ
    dof rx ry rz
    limits (-20.0 45.0)
           (-30.0 30.0)
           (-30.0 30.0)
  end
  begin
     id 15 
     name upperneck
     direction 0.0495018 0.988526 -0.142706   
     length 1.77897   
     axis 0 0 0   XYZ
    dof rx ry rz
    limits (-20.0 45.0)
           (-30.0 30.0)
           (-30.0 30.0)
  end
  begin
     id 16
     name head
     direction 0.0142736 0.998114 -0.0597101  
     length 1.78934  
     axis 0 0 0   XYZ
    dof rx ry rz
    limits (-20.0 45.0)
           (-30.0 30.0)
           (-30.0 30.0)
  end
  begin
     id 17 
     name lclavicle
     direction 0.918111 0.396107 -0.0130883  
     length 3.37276  
     axis 0 0 0   XYZ
    dof ry rz
    limits (-20.0 10.0)
           (0.0 20.0)
  end
  begin
     id 18 
     name lhumerus
     direction 1 -4.48975e-011 -3.26108e-027   
     length 5.34298   
     axis 180 -30 -90   XYZ
    dof rx ry rz
    limits (-60.0 90.0)
           (-90.0 90.0)
           (-90.0 90.0)
  end
  begin
     id 19
     name lradius
     direction 1 -4.48964e-011 -8.84413e-028   
     length 3.67262   
     axis 180 -30 -90   XYZ
    dof rx
    limits (-10.0 170.0)
  end
  begin
     id 20
     name lwrist
     direction 1 -4.48991e-011 -1.24264e-027   
     length 1.83631   
     axis -2.17013e-015 90 90   XYZ
    dof ry
    limits (-180.0 0.0)
 end
  begin
     id 21 
     name lhand
     direction 1 -4.48855e-011 -2.48528e-027   
     length 0.599298   
     axis 1.58582e-015 90 90   XYZ
    dof rx rz
    limits (-90.0 90.0)
           (-45.0 45.0)
  end
  begin
     id 22 
     name lfingers
     direction 1 -4.48811e-011 -4.97056e-027   
     length 0.48317   
     axis 3.17164e-015 90 90   XYZ
    dof rx
    limits (0.0 90.0)
  end
  begin
     id 23
     name lthumb
     direction 0.707107 -6.34882e-011 0.707107   
     length 0.693738   
     axis -90 45 2.85299e-015   XYZ
    dof rx rz
    limits (-45.0 45.0)
           (-45.0 45.0)
  end
  begin
     id 24 
     name rclavicle
     direction -0.920511 0.384752 -0.0680135   
     length 3.43787  
     axis 0 0 0   XYZ 
    dof ry rz
    limits (-10.0 20.0)
           (-20.0 0.0)
  end
  begin
     id 25 
     name rhumerus
     direction -0.999976 -0.00330524 0.00603274  
     length 5.5498   
     axis 180 30 90   XYZ
    dof rx ry rz
    limits (-90.0 60.0)
           (-90.0 90.0)
           (-90.0 90.0)
  end
  begin
     id 26 
     name rradius
     direction -1 -4.48967e-011 8.62438e-027   
     length 3.69401   
     axis 180 30 90   XYZ
    dof rx
    limits (-10.0 170.0)
  end
  begin
     id 27 
     name rwrist
     direction -1 -4.4897e-011 9.54866e-027   
     length 1.84701   
     axis -7.69462e-015 -90 -90   XYZ
    dof ry
    limits (-180.0 0.0)
  end
  begin
     id 28
     name rhand
     direction -1 -4.48982e-011 1.90973e-026   
     length 0.638113   
     axis -1.21857e-014 -90 -90   XYZ
    dof rx rz
    limits (-90.0 90.0)
           (-45.0 45.0)
  end
  begin
     id 29
     name rfingers
     direction -1 -4.48936e-011 3.81946e-026   
     length 0.514463   
     axis -2.43714e-014 -90 -90   XYZ
    dof rx
    limits (0.0 90.0)
  end
  begin
     id 30
     name rthumb
     direction -0.707107 -6.34942e-011 0.707107   
     length 0.738669   
     axis -90 -45 -2.85299e-015   XYZ
    dof rx rz
    limits (-45.0 45.0)
           (-45.0 45.0)
  end
:hierarchy
  begin
    root lhipjoint rhipjoint lowerback
    lhipjoint lfemur
    lfemur ltibia
    ltibia lfoot
    lfoot ltoes
    rhipjoint rfemur
    rfemur rtibia
    rtibia rfoot
    rfoot rtoes
    lowerback upperback
    upperback thorax
    thorax lowerneck lclavicle rclavicle
    lowerneck upperneck
    upperneck head
    lclavicle lhumerus
    lhumerus lradius
    lradius lwrist
    lwrist lhand lthumb
    lhand lfingers
    rclavicle rhumerus
    rhumerus rradius
    rradius rwrist
    rwrist rhand rthumb
    rhand rfingers
  end

#!OML:ASF F:\twosubjects\two\Thursday\Session 1\Rory.ASF
:FULLY-SPECIFIED
:DEGREES
221
root 13.3985 18.8318 5.62278 219.247 -86.5978 -211.059
lowerback -1.59583 -2.12685 -3.05646
upperback -1.74793 -2.83023 -0.0947425
thorax -0.756448 -1.39342 1.58412
lowerneck -10.5779 -5.76074 -6.94157
upperneck 15.8925 -9.02618 11.4363
head 7.46004 -3.91508 3.96966
rclavicle -1.64867e-014 6.65929e-015
rhumerus -42.5118 -23.3613 -65.249
rradius 33.5572
rwrist 22.2312
rhand -25.2705 33.8848
rfingers 7.12502
rthumb 1.25031 3.90869
lclavicle -1.64867e-014 6.65929e-015
lhumerus -39.9302 21.4283 68.3914
lradius 33.4081
lwrist -23.2328
lhand -13.5003 25.2227
lfingers 7.12502
lthumb 12.6109 54.822
rfemur -5.61711 11.4643 12.1958
rtibia 9.70914
rfoot -8.88582 -14.1453
rtoes -7.85416
lfemur -4.43979 0.0441774 -19.8757
ltibia 13.0111
lfoot -16.3636 7.6798
ltoes 25.4593
222
root 13.4005 18.8094 5.62175 211.915 -86.8544 -203.815
lowerback -1.51495 -2.04497 -2.44267
upperback -1.7096 -2.72522 0.0269977
thorax -0.789029 -1.34546 1.37026
lowerneck -10.8718 -5.26203 -6.5113
upperneck 16.128 -8.33199 11.0171
head 7.48182 -3.5745 3.83333
rclavicle -1.33869e-014 1.39149e-015
rhumerus -42.4816 -23.7357 -65.069
rradius 32.9783
rwrist 22.6376
rhand -26.1991 33.7936
rfingers 7.12502
rthumb 0.353484 3.81413
lclavicle -1.33869e-014 1.39149e-015
lhumerus -39.8303 21.3281 68.6531
lradius 33.4509
lwrist -23.1154
lhand -14.1272 25.7694
lfingers 7.12502
lthumb 12.0065 55.405
rfemur -5.4083 11.5622 12.7706
rtibia 9.54333
rfoot -8.87319 -14.2415
rtoes -8.57474
lfemur -4.85553 2.51436 -19.56
ltibia 13.2533
lfoot -14.4926 7.63811
ltoes 10.5452
223
root 13.399 18.8221 5.62186 211.886 -86.8156 -203.901
lowerback -1.37737 -1.96948 -2.3423
upperback -1.68488 -2.62861 -0.0397407
thorax -0.852123 -1.2977 1.25192
lowerneck -11.0714 -4.78491 -5.76828
upperneck 16.236 -7.67176 10.3674
head 7.43368 -3.25607 3.5648
rclavicle 9.51682e-015 -8.54774e-015
rhumerus -42.4135 -23.724 -65.1688
rradius 32.5878
rwrist 22.3948
rhand -26.0132 33.8453
rfingers 7.12502
rthumb 0.533007 3.86622
lclavicle 9.51682e-015 -8.54774e-015
lhumerus -39.7297 21.0337 68.8545
lradius 33.4696
lwrist -23.049
lhand -13.6841 25.5273
lfingers 7.12502
lthumb 12.4337 55.1375
rfemur -5.14122 11.6517 12.7607
rtibia 9.27871
rfoot -8.77141 -14.1992
rtoes -8.42661
lfemur -4.59359 0.873244 -19.4617
ltibia 13.5599
lfoot -15.966 7.87001
ltoes 19.3905
224
root 13.4045 18.8219 5.61456 209.035 -86.727 -200.986
lowerback -1.34872 -1.84462 -2.24916
upperback -1.69701 -2.46369 -0.0457157
thorax -0.890992 -1.21569 1.19678
lowerneck -11.0557 -4.18919 -4.73694
upperneck 16.012 -6.82715 9.48191
head 7.21664 -2.86279 3.19144
rclavicle -5.36656e-014 9.93923e-016
rhumerus -42.2471 -23.5435 -65.3812
rradius 32.1781
rwrist 21.8512
rhand -25.603 33.6388
rfingers 7.12502
rthumb 0.92919 3.66105
lclavicle -5.36656e-014 9.93923e-016
lhumerus -39.6171 20.6782 69.0559
lradius 33.5224
lwrist -23.0382
lhand -12.9692 24.98
lfingers 7.12502
lthumb 13.1229 54.5471
rfemur -5.11745 11.8516 12.8749
rtibia 9.00076
rfoot -8.62605 -14.1296
rtoes -7.3613
lfemur -4.78053 0.594674 -19.3426
ltibia 13.8136
lfoot -16.2605 8.24918
ltoes 20.3086
225
root 13.4073 18.8219 5.60521 204.413 -86.7414 -196.305
lowerback -1.33464 -1.7018 -2.0549
upperback -1.70921 -2.27392 0.0363823
thorax -0.922339 -1.12176 1.17469
lowerneck -11.2351 -3.6483 -4.34124
upperneck 16.171 -6.07557 9.06663
head 7.21604 -2.50256 3.06628
rclavicle 2.14128e-014 9.34288e-015
rhumerus -42.4582 -23.6013 -65.3339
rradius 32.1258
rwrist 21.9722
rhand -25.7831 33.1913
rfingers 7.12502
rthumb 0.755186 3.21285
lclavicle 2.14128e-014 9.34288e-015
lhumerus -39.5728 20.4472 69.3141
lradius 33.6526
lwrist -23.0103
lhand -12.6145 24.5045
lfingers 7.12502
lthumb 13.4648 54.0493
rfemur -4.96474 12.004 13.174
rtibia 8.54218
rfoot -8.42496 -14.1038
rtoes -6.51622
lfemur -4.94868 0.580573 -19.0379
ltibia 14.0094
lfoot -16.3619 8.40645
ltoes 19.3853
